<?xml version="1.0"?>
<svg xmlns="http://www.w3.org/2000/svg" xmlns:xlink="http://www.w3.org/1999/xlink" xmlns:svgjs="http://svgjs.com/svgjs" version="1.1" width="512" height="512" x="0" y="0" viewBox="0 0 511 512" style="enable-background:new 0 0 512 512" xml:space="preserve"><g><path xmlns="http://www.w3.org/2000/svg" d="m465.058594 393.949219h-11.667969c-3.222656 4.539062 5.886719-8.089844 7.777344-11.648438 24.84375-39.558593 38.300781-85.773437 38.300781-132.816406 0-66.640625-25.949219-129.289063-73.070312-176.414063-47.121094-47.121093-109.769532-73.070312-176.410157-73.070312-54.582031 0-106.421875 17.304688-149.90625 50.042969-3.292969 2.476562-3.953125 7.148437-1.476562 10.441406 2.480469 3.289063 7.152343 3.949219 10.445312 1.472656 38.894531-29.28125 84.902344-45.417969 133.480469-46.917969v220.722657l-186.617188-118.125c8.257813-12.101563 17.699219-23.523438 28.292969-34.105469 2.914063-2.910156 2.914063-7.632812.003907-10.546875-2.910157-2.910156-7.628907-2.917969-10.542969-.003906-41.8125 41.765625-66.957031 95.753906-72.144531 153.910156-1.238282 13.667969-1.355469 27.457031-.335938 41.144531 3.539062 48.753906 21.023438 94.640625 51.125 133.675782 31.921875 41.394531 76.730469 72.148437 126.546875 86.960937v7.175781c0 8.90625 7.246094 16.152344 16.152344 16.152344h78.421875c3.199218 0 6.179687-.949219 8.695312-2.5625 2.511719 1.613281 5.492188 2.5625 8.695313 2.5625h78.417969c3.203124 0 6.183593-.949219 8.699218-2.5625 2.511719 1.613281 5.492188 2.5625 8.695313 2.5625h78.421875c8.90625 0 16.148437-7.246094 16.148437-16.152344v-85.75c.003907-8.90625-7.242187-16.148437-16.148437-16.148437zm-239.199219 0h-32.089844v-18.230469c0-.683594.558594-1.238281 1.242188-1.238281h78.421875c.683594 0 1.238281.554687 1.238281 1.238281v18.230469h-16.996094c-4.117187 0-7.457031 3.335937-7.457031 7.453125 0 4.121094 3.339844 7.457031 7.457031 7.457031h16.996094v19.46875h-80.902344v-19.46875h32.089844c4.121094 0 7.457031-3.335937 7.457031-7.457031 0-4.117188-3.335937-7.453125-7.457031-7.453125zm63.722656-18.230469v-1.238281h80.902344v19.464843h-80.902344zm80.902344-16.152344h-80.902344v-19.464844h80.902344zm-80.902344 49.292969h80.902344v19.46875h-80.902344zm80.902344-83.671875h-80.902344v-18.226562c0-.6875.558594-1.242188 1.242188-1.242188h78.417969c.683593 0 1.242187.554688 1.242187 1.242188zm-176.714844 118.050781h80.902344v19.46875h-80.902344zm95.8125 0h80.902344v19.46875h-80.902344zm95.816407 0h80.898437v19.46875h-80.898437zm80.898437-33.140625v18.230469h-80.898437v-18.230469c0-.683594.554687-1.238281 1.238281-1.238281h78.421875c.683594 0 1.238281.554687 1.238281 1.238281zm-79.660156-16.148437c-.417969 0-.828125.03125-1.238281.0625v-50.175781l58.792968 37.214843c-2.976562 4.398438-6.117187 8.699219-9.398437 12.898438zm-370.753907-129.691407c-.15625-2.441406-.257812-4.875-.335937-7.316406h164.160156l-160.457031 34.632813c-1.644531-8.964844-2.78125-18.082031-3.367188-27.316407zm6.519532 41.890626 190.605468-41.140626-162.34375 107.890626c-12.703124-20.496094-22.3125-42.988282-28.261718-66.75zm25.546875-175.902344 176.601562 111.78125h-209.003906c.132813-4.371094.390625-8.738282.769531-13.097656 3.042969-34.875 13.808594-68.539063 31.632813-98.683594zm10.96875 255.074218 191.230469-127.089843 29.558593 18.707031c1.238281.785156 2.617188 1.15625 3.980469 1.15625 2.472656 0 4.886719-1.226562 6.308594-3.46875 2.203125-3.480469 1.167968-8.085938-2.3125-10.285156l-30.238282-19.140625v-230.15625c125.902344 3.953125 227.113282 107.59375 227.113282 234.441406 0 41.90625-11.351563 83.109375-32.40625 118.957031l-66.753906-42.253906v-19.226562c0-8.910157-7.246094-16.152344-16.152344-16.152344h-78.421875c-8.90625 0-16.152344 7.246094-16.152344 16.152344v52.667968c-.410156-.03125-.820313-.0625-1.238281-.0625h-78.421875c-8.90625 0-16.152344 7.246094-16.152344 16.152344v97.347656c-49.449219-15.710937-91.074219-47.125-119.941406-87.746094zm214.515625 111.765626h-78.421875c-.683594 0-1.242188-.554688-1.242188-1.238282v-18.226562h80.902344v18.226562c0 .683594-.558594 1.238282-1.238281 1.238282zm95.808594 0h-78.417969c-.683594 0-1.242188-.554688-1.242188-1.238282v-18.226562h80.902344v18.226562c0 .683594-.554687 1.238282-1.242187 1.238282zm97.054687-1.238282c0 .683594-.554687 1.242188-1.238281 1.242188h-78.421875c-.683594 0-1.238281-.558594-1.238281-1.242188v-18.226562h80.898437zm0 0" fill="#ffffff" data-original="#000000" style=""/></g></svg>
